  <svg width="534" height="512" viewBox="0 0 534 512" fill="none" xmlns="http://www.w3.org/2000/svg">
                        <path d="M296.408 193.323C294.026 194.236 290.834 194.657 288.355 194.587C289.443 191.954 291.535 188.057 295.699 182.265C310.881 161.693 331.463 146.843 354.457 139.119C343.909 160.359 318.561 184.582 296.373 193.288H296.408L296.408 193.323ZM516.345 168.258C494.92 127.043 452.704 100.397 403.675 97.0271C402.011 96.8867 400.489 96.7814 398.895 96.7463C397.085 60.271 377.252 30.3957 341.065 14.0362C232.187 -35.2177 41.9244 49.8445 -61.9596 195.851L-15.9742 195.254C82.5286 74.6996 244.385 7.71709 325.234 46.8604C348.858 58.2699 361.654 75.823 362.489 99.5548C324.584 107.103 290.228 128.658 266.289 161.131C244.898 190.129 249.439 207.822 257.067 217.617C270.083 234.398 296.281 232.326 309.722 227.025C345.279 213.088 382.668 174.436 392.873 141.05C393.714 138.312 394.484 135.574 395.148 132.835C396.954 132.906 398.901 133.011 400.706 133.151C437.132 135.714 469.122 150.213 490.477 176.507C564.491 267.116 455.17 319.179 452.345 321.952L264.651 405.154C223.596 419.793 179.526 394.376 172.353 351.968L163.568 134.591C162.774 128.798 159.292 122.444 151.437 125.217L123.037 139.014C116.918 141.717 114.098 147.65 114.288 153.618L112.593 433.028C114.187 495.658 183.544 532.695 237.67 499.66L371.435 418.038L371.826 417.862C388.1 408.98 405.341 398.975 423.514 387.776C460.395 365.168 575.927 282.423 516.344 168.328L516.345 168.258Z" fill="url(#paint0_linear_3129_5849)" />
                        <defs>
                            <linearGradient id="paint0_linear_3129_5849" x1="237.638" y1="0" x2="-45.0117" y2="446.232" gradientUnits="userSpaceOnUse">
                                <stop stop-color="#166AF6" />
                                <stop offset="1" stop-color="#00C9F7" />
                            </linearGradient>
                        </defs>
                    </svg>