<svg width="100" height="100" viewBox="0 0 100 100" fill="none" xmlns="http://www.w3.org/2000/svg">
<path fill-rule="evenodd" clip-rule="evenodd" d="M65.618 27.0254C64.0051 25.247 62.9433 23.0386 62.5614 20.6684C62.1795 18.2982 62.4939 15.868 63.4665 13.673C64.439 11.478 66.028 9.61262 68.0403 8.30325C70.0526 6.99388 72.4018 6.29688 74.8026 6.29688C77.2034 6.29688 79.5526 6.99387 81.5649 8.30325C83.5772 9.61262 85.1661 11.478 86.1387 13.673C87.1113 15.868 87.4257 18.2982 87.0438 20.6684C86.6618 23.0386 85.6 25.247 83.9872 27.0254C84.4832 27.2858 84.9585 27.5668 85.4131 27.8685C88.2463 29.7594 90.0627 32.233 91.1973 34.5207C92.5495 37.2762 93.3018 40.2873 93.4043 43.355L93.4043 55.8905C93.4043 57.5347 92.7511 59.1115 91.5885 60.2742C90.4259 61.4368 88.849 62.09 87.2048 62.09L71.7059 62.09C70.6207 59.8879 69.189 57.8743 67.4654 56.126L67.546 55.8905L87.2048 55.8905L87.2048 43.4914C87.2048 43.4914 87.2048 31.0923 74.8057 31.0923C68.5627 31.0923 65.463 34.2355 63.9255 37.3538C62.5306 35.7792 60.8691 34.4401 59.0093 33.4109C60.5733 30.7076 62.8625 28.4957 65.618 27.0254ZM74.8057 24.8928C73.1615 24.8928 71.5846 24.2396 70.4219 23.077C69.2593 21.9143 68.6061 20.3375 68.6061 18.6932C68.6061 17.049 69.2593 15.4721 70.4219 14.3095C71.5846 13.1469 73.1615 12.4937 74.8057 12.4937C76.4499 12.4937 78.0268 13.1469 79.1894 14.3095C80.3521 15.4721 81.0052 17.049 81.0052 18.6932C81.0052 20.3375 80.3521 21.9143 79.1894 23.077C78.0268 24.2396 76.4499 24.8928 74.8057 24.8928ZM12.8103 62.09L28.3091 62.09C29.3944 59.8879 30.8261 57.8743 32.5496 56.126L32.469 55.8905L12.8103 55.8905L12.8103 43.4914C12.8103 43.4914 12.8103 31.0923 25.2094 31.0923C31.4523 31.0923 34.5521 34.2355 36.0896 37.3538C37.4921 35.7694 39.1547 34.436 41.0058 33.4109C39.4418 30.7076 37.1526 28.4957 34.3971 27.0254C36.0099 25.247 37.0717 23.0386 37.4536 20.6684C37.8356 18.2982 37.5211 15.868 36.5486 13.673C35.576 11.478 33.9871 9.61262 31.9748 8.30325C29.9624 6.99388 27.6133 6.29688 25.2125 6.29688C22.8116 6.29688 20.4625 6.99388 18.4501 8.30325C16.4378 9.61262 14.8489 11.478 13.8764 13.673C12.9038 15.868 12.5894 18.2982 12.9713 20.6684C13.3532 23.0386 14.415 25.247 16.0278 27.0254C15.5319 27.2858 15.0566 27.5668 14.6019 27.8686C11.7688 29.7594 9.9523 32.233 8.81778 34.5207C7.48546 37.2086 6.7335 40.1467 6.61074 43.1442L6.61074 55.8905C6.61075 57.5347 7.26391 59.1116 8.42655 60.2742C9.58919 61.4368 11.1661 62.09 12.8103 62.09ZM25.2094 24.8928C23.5651 24.8928 21.9883 24.2396 20.8256 23.077C19.663 21.9143 19.0098 20.3375 19.0098 18.6932C19.0098 17.049 19.663 15.4721 20.8256 14.3095C21.9883 13.1469 23.5651 12.4937 25.2094 12.4937C26.8536 12.4937 28.4305 13.1469 29.5931 14.3095C30.7557 15.4721 31.4089 17.049 31.4089 18.6932C31.4089 20.3375 30.7557 21.9143 29.5931 23.077C28.4305 24.2396 26.8536 24.8928 25.2094 24.8928Z" fill="white"/>
<path fill-rule="evenodd" clip-rule="evenodd" d="M37.6097 49.696C37.6097 52.9012 38.8248 55.8274 40.8211 58.0282C37.6973 59.7196 35.1774 62.3414 33.611 65.5296C32.2536 68.2786 31.5031 71.2872 31.4102 74.3516L31.4102 86.8933C31.4102 88.5375 32.0634 90.1143 33.226 91.277C34.3886 92.4396 35.9655 93.0928 37.6097 93.0928L62.4079 93.0928C64.0521 93.0928 65.629 92.4396 66.7916 91.277C67.9543 90.1143 68.6074 88.5375 68.6074 86.8932L68.6074 74.3578C68.6045 74.0785 68.5921 73.7993 68.5702 73.5208C68.3674 70.7404 67.6307 68.0251 66.4004 65.5234C64.8356 62.3361 62.318 59.7145 59.1965 58.022C60.5484 56.5302 61.5168 54.7316 62.0178 52.7817C62.5188 50.8317 62.5375 48.7891 62.0722 46.8304C61.6069 44.8716 60.6717 43.0556 59.3472 41.5393C58.0228 40.023 56.3491 38.852 54.4707 38.1275C52.5923 37.403 50.5658 37.1468 48.5662 37.3811C46.5666 37.6153 44.6541 38.333 42.994 39.472C41.3339 40.611 39.9762 42.1371 39.0381 43.9184C38.0999 45.6998 37.6097 47.6828 37.6097 49.696ZM62.4079 74.4942L62.4079 86.8933L37.6097 86.8933L37.6097 74.4942C37.6097 74.4942 37.6097 62.0951 50.0088 62.0951C62.4079 62.0951 62.4079 74.4942 62.4079 74.4942ZM43.8093 49.696C43.8093 51.3402 44.4624 52.9171 45.6251 54.0798C46.7877 55.2424 48.3646 55.8956 50.0088 55.8956C51.653 55.8956 53.2299 55.2424 54.3925 54.0798C55.5552 52.9171 56.2083 51.3402 56.2083 49.696C56.2083 48.0518 55.5552 46.4749 54.3925 45.3123C53.2299 44.1496 51.653 43.4965 50.0088 43.4965C48.3646 43.4965 46.7877 44.1496 45.6251 45.3123C44.4624 46.4749 43.8093 48.0518 43.8093 49.696Z" fill="white"/>
</svg>
