<svg width="95" height="96" viewBox="0 0 95 96" fill="none" xmlns="http://www.w3.org/2000/svg">
<path d="M47.8793 79.5029C47.6175 79.5029 47.3558 79.4374 47.094 79.3066C46.8322 79.1757 46.6359 79.0448 46.505 78.9139L14.3088 46.7176C13.5235 45.9324 12.9502 45.0489 12.589 44.0673C12.2278 43.0857 12.0485 42.1042 12.0511 41.1226C12.0511 40.0755 12.2304 39.0769 12.589 38.1267C12.9476 37.1766 13.5209 36.3429 14.3088 35.6256L30.9959 18.9385C31.7157 18.1533 32.5507 17.5813 33.5009 17.2227C34.4511 16.8641 35.4471 16.6835 36.4889 16.6809C37.4705 16.6809 38.452 16.8615 39.4336 17.2227C40.4152 17.5839 41.2987 18.1559 42.0839 18.9385L43.1637 20.0183L35.8999 27.3802C34.9183 28.2964 34.1985 29.3434 33.7404 30.5213C33.2823 31.6993 33.0533 32.9426 33.0533 34.2514C33.0533 36.9999 33.9851 39.3073 35.8489 41.1736C37.7126 43.0399 40.02 43.9718 42.7711 43.9692C44.0799 43.9692 45.3389 43.7401 46.5482 43.2821C47.7576 42.824 48.8216 42.1369 49.7404 41.2207L57.1063 33.9569L74.2842 51.1348C74.4805 51.3311 74.6271 51.5445 74.7239 51.7748C74.8208 52.0052 74.8705 52.2499 74.8731 52.509C74.8731 53.0326 74.6768 53.5076 74.2842 53.9343C73.8915 54.361 73.4334 54.573 72.9099 54.5704C72.6482 54.5704 72.3864 54.5049 72.1246 54.3741C71.8629 54.2432 71.6666 54.1123 71.5357 53.9814L60.9345 43.3802C60.2146 42.6604 59.3142 42.2835 58.2331 42.2494C57.1521 42.2154 56.2202 42.5923 55.4376 43.3802C54.7177 44.1001 54.3578 45.0162 54.3578 46.1287C54.3578 47.2412 54.7177 48.1573 55.4376 48.8771L65.9406 59.4784C66.1369 59.6747 66.2835 59.888 66.3804 60.1184C66.4772 60.3487 66.5269 60.5934 66.5296 60.8526C66.5296 61.3761 66.3332 61.8342 65.9406 62.2268C65.548 62.6195 65.0899 62.8158 64.5664 62.8158C64.3046 62.8158 64.0429 62.7503 63.7811 62.6195C63.5193 62.4886 63.323 62.3577 63.1921 62.2268L52.5909 51.7238C51.8711 51.0039 50.9706 50.627 49.8896 50.593C48.8085 50.5589 47.8767 50.9359 47.094 51.7238C46.3742 52.4436 46.0142 53.3598 46.0142 54.4722C46.0142 55.5847 46.3742 56.5009 47.094 57.2207L57.5971 67.8219C57.7934 67.9528 57.94 68.1491 58.0368 68.4109C58.1337 68.6726 58.1834 68.9344 58.186 69.1961C58.186 69.7197 57.9897 70.1777 57.5971 70.5704C57.2044 70.963 56.7463 71.1593 56.2228 71.1593C55.9611 71.1593 55.715 71.1096 55.4847 71.0101C55.2543 70.9107 55.0423 70.7641 54.8486 70.5704L44.2474 60.0673C43.5275 59.3475 42.6271 58.9705 41.546 58.9365C40.465 58.9025 39.5331 59.2794 38.7505 60.0673C38.0306 60.7872 37.6707 61.7033 37.6707 62.8158C37.6707 63.9283 38.0306 64.8444 38.7505 65.5642L49.3517 76.1654C49.548 76.3618 49.6946 76.5751 49.7914 76.8054C49.8883 77.0358 49.938 77.2805 49.9406 77.5397C49.9406 78.0632 49.7273 78.5213 49.3006 78.9139C48.874 79.3066 48.4002 79.5029 47.8793 79.5029ZM47.9774 87.3556C50.3987 87.3556 52.5412 86.5546 54.4049 84.9527C56.2686 83.3507 57.3654 81.3378 57.6952 78.9139C59.9202 78.5867 61.7852 77.6706 63.2903 76.1654C64.7954 74.6603 65.7116 72.7953 66.0388 70.5704C68.2637 70.2432 70.1117 69.3113 71.5828 67.7748C73.0539 66.2383 73.9543 64.3889 74.2842 62.2268C76.7709 61.8996 78.7995 60.8199 80.37 58.9876C81.9406 57.1553 82.7259 54.9957 82.7259 52.509C82.7259 51.2002 82.4798 49.9412 81.9877 48.7319C81.4956 47.5225 80.7928 46.4585 79.8792 45.5397L62.7013 28.3618C61.1962 26.8567 59.3469 26.1042 57.1534 26.1042C54.9598 26.1042 53.1118 26.8567 51.6093 28.3618L44.2474 35.7238C44.1165 35.9201 43.9202 36.068 43.6584 36.1675C43.3967 36.2669 43.1349 36.3154 42.8731 36.3128C42.2842 36.3128 41.7934 36.1334 41.4008 35.7748C41.0081 35.4162 40.8118 34.9411 40.8118 34.3496C40.8118 34.0878 40.8615 33.826 40.961 33.5643C41.0605 33.3025 41.2071 33.1062 41.4008 32.9753L55.4376 18.9385C56.1574 18.1533 56.9911 17.5813 57.9386 17.2227C58.8862 16.8641 59.8848 16.6835 60.9345 16.6809C61.9161 16.6809 62.8977 16.8615 63.8793 17.2227C64.8608 17.5839 65.7443 18.1559 66.5296 18.9385L80.37 32.8772C81.2862 33.7933 81.9406 34.8731 82.3332 36.1164C82.7259 37.3598 82.824 38.6031 82.6277 39.8465C82.4314 40.959 82.6604 41.9405 83.3148 42.7913C83.9692 43.642 84.8526 44.1328 85.9651 44.2637C87.0776 44.3945 88.0592 44.1485 88.9099 43.5255C89.7606 42.9025 90.2514 42.0361 90.3823 40.9262C90.7749 38.4395 90.5943 36.0026 89.8404 33.6153C89.0866 31.2281 87.7948 29.117 85.9651 27.2821L72.1246 13.4416C70.5541 11.9365 68.8029 10.7913 66.8712 10.006C64.9394 9.22076 62.9605 8.82813 60.9345 8.82813C58.9085 8.82813 56.9283 9.22077 54.9939 10.006C53.0595 10.7913 51.3423 11.9365 49.8425 13.4416L48.7627 14.5214L47.683 13.4416C46.1124 11.9365 44.3612 10.7913 42.4295 10.006C40.4977 9.22077 38.5188 8.82813 36.4928 8.82813C34.4668 8.82813 32.4866 9.22077 30.5522 10.006C28.6178 10.7913 26.9007 11.9365 25.4008 13.4416L8.81184 30.0306C7.30673 31.5357 6.16154 33.2698 5.37626 35.233C4.59098 37.1962 4.19835 39.1921 4.19835 41.2207C4.19835 43.2493 4.59098 45.2295 5.37626 47.1613C6.16154 49.0931 7.30673 50.8102 8.81184 52.3127L41.0081 84.4108C41.9243 85.327 42.987 86.0468 44.1963 86.5703C45.4057 87.0939 46.666 87.3556 47.9774 87.3556Z" fill="white"/>
</svg>
