<svg width="127" height="111" viewBox="0 0 127 111" fill="none" xmlns="http://www.w3.org/2000/svg">
<g clip-path="url(#clip0_3133_6502)">
<path d="M125.827 32.3954C125.593 31.4076 125.277 30.4315 124.879 29.4907C122.771 24.5163 118.695 20.4122 113.753 18.2484C110.239 16.7078 106.081 16.1434 102.357 15.2379C93.948 13.1917 85.4804 11.3454 77.1064 9.18157C72.7848 8.06438 68.428 7.07656 64.0829 6.0417C61.9046 5.52427 59.7379 5.00684 57.5595 4.50116C55.5568 4.03077 53.0739 2.98415 51.0243 2.98415C46.5856 1.94929 40.9288 -0.426194 36.408 0.53811C29.6152 1.98457 26.2773 10.5692 30.9738 15.9317C33.1521 18.4248 36.326 19.8124 39.4882 20.8003C45.2855 22.6113 51.0126 24.4458 56.7514 26.4332C64.6451 29.1615 72.5154 31.9956 80.456 34.6651C86.0425 36.5466 92.0155 38.7222 95.3651 43.6025C97.4147 46.5895 98.2111 50.2821 98.4453 53.8923C98.5624 55.5622 98.5624 57.2321 98.5624 58.9138C98.5858 69.427 98.4804 79.8933 98.4921 90.383C98.4921 97.4036 101.326 105.612 109.689 105.518C116.528 105.436 119.585 99.7438 120.452 93.7581C120.651 92.3469 120.897 90.9475 121.049 89.5246C121.166 88.4191 121.084 87.2902 121.236 86.1965C121.517 84.1386 121.951 82.1041 122.232 80.0462C122.607 77.2003 122.923 74.3544 123.227 71.4968C124.071 63.4883 124.82 55.5034 125.792 47.495C126.378 42.65 127.022 37.311 125.839 32.3954H125.827ZM43.5873 17.9779C43.3882 17.9661 43.1774 17.8956 42.99 17.825C40.5657 16.9783 38.1414 16.1316 35.717 15.2731C35.4125 15.0967 35.1197 14.9321 34.8152 14.7557C33.6792 13.3328 32.4377 12.051 32.4729 9.95771C32.5431 6.06522 35.7873 3.41926 39.6288 4.26597C42.3927 4.87748 45.1684 5.44195 47.9441 6.01818C48.0027 6.19458 48.0495 6.37097 48.1081 6.53561C46.972 9.99299 45.7657 13.4269 44.7234 16.9078C44.5828 17.3664 44.29 17.8485 43.8216 17.9426C43.7396 17.9544 43.6693 17.9661 43.5873 17.9544V17.9779ZM53.4252 21.2824C51.5279 20.6474 49.7477 20.0476 47.9793 19.4479C47.9441 19.3538 47.909 19.248 47.8738 19.1539C47.9324 19.0716 47.9441 18.9775 47.909 18.8716C49.209 15.085 50.509 11.2983 51.8207 7.52343C52.1018 7.4764 52.3829 7.42936 52.664 7.38232C54.2099 7.71159 55.7676 8.04087 57.5126 8.40542C56.6577 11.2983 55.8379 14.0619 55.018 16.8137C54.8189 17.4017 54.6315 17.9897 54.4324 18.5777C54.409 18.6717 54.3739 18.754 54.3505 18.8481C54.0577 19.636 53.7532 20.4239 53.4369 21.2824H53.4252ZM116.153 95.816C115.884 98.509 114.408 100.285 112.031 101.143C107.381 102.825 102.767 99.8849 102.662 95.1222C102.615 92.7938 102.662 90.4536 102.662 87.9487C107.452 88.572 112.125 89.1835 117.114 89.8421C116.774 91.8883 116.353 93.8522 116.153 95.8278V95.816ZM117.231 85.7496C117.196 85.926 116.657 86.126 116.376 86.0907C113.788 85.7732 111.211 85.4321 108.635 85.0676C106.562 84.7736 104.489 84.4561 102.369 84.1503C102.474 82.257 102.568 80.5401 102.685 78.6467C107.674 79.1406 112.792 79.6581 118.203 80.199C117.887 82.0571 117.594 83.9151 117.231 85.7614V85.7496ZM122.7 41.427C122.607 42.4383 122.49 43.4614 122.361 44.4727C121.213 53.8923 119.714 63.3355 119.21 72.8256C119.175 73.5547 119.128 74.3074 118.847 74.9777C117.852 77.3179 113.706 75.8714 111.762 75.6597C108.822 75.3422 105.894 75.0247 102.954 74.7072C102.814 74.6954 102.662 74.6719 102.556 74.5661C102.439 74.4485 102.427 74.2486 102.439 74.0722C102.744 66.1931 103.458 57.8789 102.064 50.0704C100.811 43.0851 96.1146 37.5933 90.0011 34.2652C84.9885 31.537 79.4254 30.5844 74.1902 28.5735C68.6623 26.4567 62.9352 24.9867 57.5009 22.576C57.3721 22.5172 57.2316 22.4466 57.173 22.3173C57.1144 22.1879 57.1613 22.035 57.2081 21.8939C58.5316 17.9544 59.5505 13.7326 61.155 9.92243C61.237 9.72252 61.3541 9.51084 61.5532 9.4638C61.6703 9.42852 61.7991 9.4638 61.9163 9.48732C72.0352 11.9922 82.1776 14.3912 92.32 16.8019C103.481 19.4596 119.913 20.6474 122.548 34.6886C122.958 36.8994 122.911 39.1691 122.7 41.4152V41.427Z" fill="#FFFAEF"/>
</g>
<path opacity="0.5" d="M4.97266 70.5938L47.0586 42.0354" stroke="#FFFAEF" stroke-width="9.11045" stroke-linecap="round"/>
<path opacity="0.5" d="M34.8008 78.4688L76.8868 49.9104" stroke="#FFFAEF" stroke-width="9.11045" stroke-linecap="round"/>
<path opacity="0.5" d="M36.3008 105.539L78.3868 76.9807" stroke="#FFFAEF" stroke-width="9.11045" stroke-linecap="round"/>
<defs>
<clipPath id="clip0_3133_6502">
<rect width="97.6996" height="105.215" fill="white" transform="translate(28.7832 0.3125)"/>
</clipPath>
</defs>
</svg>
