<svg width="127" height="110" viewBox="0 0 127 110" fill="none" xmlns="http://www.w3.org/2000/svg">
<g clip-path="url(#clip0_3133_6488)">
<path d="M1.57298 77.8624C1.80721 78.8502 2.12342 79.8263 2.52162 80.7671C4.62975 85.7415 8.70544 89.8456 13.6478 92.0094C17.1613 93.55 21.319 94.1144 25.0434 95.0199C33.4524 97.0662 41.92 98.9124 50.294 101.076C54.6156 102.193 58.9724 103.181 63.3174 104.216C65.4958 104.734 67.6625 105.251 69.8409 105.757C71.8436 106.227 74.3265 107.274 76.3761 107.274C80.8148 108.309 86.4716 110.684 90.9924 109.72C97.7852 108.273 101.123 99.6886 96.4266 94.3261C94.2482 91.833 91.0744 90.4454 87.9122 89.4576C82.1148 87.6465 76.3878 85.812 70.649 83.8246C62.7553 81.0963 54.885 78.2622 46.9444 75.5928C41.3579 73.7112 35.3849 71.5356 32.0353 66.6553C29.9857 63.6683 29.1893 59.9757 28.9551 56.3655C28.838 54.6956 28.838 53.0257 28.838 51.344C28.8146 40.8308 28.92 30.3645 28.9082 19.8748C28.9082 12.8542 26.074 4.64585 17.7118 4.73993C10.8721 4.82225 7.81535 10.514 6.94868 16.4997C6.74958 17.9109 6.50363 19.3103 6.35138 20.7333C6.23426 21.8387 6.31624 22.9676 6.16399 24.0613C5.8829 26.1193 5.44957 28.1537 5.16849 30.2117C4.79371 33.0575 4.47749 35.9034 4.17299 38.761C3.32974 46.7695 2.58018 54.7544 1.60811 62.7628C1.02251 67.6078 0.378365 72.9468 1.56126 77.8624H1.57298ZM83.8131 92.2799C84.0122 92.2917 84.223 92.3622 84.4104 92.4328C86.8347 93.2795 89.259 94.1262 91.6834 94.9847C91.9879 95.1611 92.2807 95.3257 92.5852 95.5021C93.7212 96.925 94.9627 98.2069 94.9275 100.3C94.8573 104.193 91.6131 106.839 87.7716 105.992C85.0077 105.38 82.232 104.816 79.4563 104.24C79.3977 104.063 79.3509 103.887 79.2923 103.722C80.4284 100.265 81.6347 96.831 82.677 93.3501C82.8176 92.8914 83.1103 92.4093 83.5788 92.3152C83.6608 92.3034 83.7311 92.2917 83.8131 92.3034V92.2799ZM73.9752 88.9754C75.8725 89.6104 77.6527 90.2102 79.4211 90.8099C79.4563 90.904 79.4914 91.0099 79.5265 91.1039C79.468 91.1863 79.4563 91.2803 79.4914 91.3862C78.1914 95.1728 76.8914 98.9595 75.5797 102.734C75.2986 102.781 75.0175 102.828 74.7364 102.875C73.1905 102.546 71.6328 102.217 69.8878 101.852C70.7427 98.9595 71.5625 96.1959 72.3824 93.4441C72.5815 92.8561 72.7688 92.2682 72.9679 91.6802C72.9914 91.5861 73.0265 91.5038 73.0499 91.4097C73.3427 90.6218 73.6472 89.8339 73.9635 88.9754H73.9752ZM11.2469 14.4418C11.5163 11.7488 12.992 9.97305 15.3694 9.11458C20.019 7.43293 24.6335 10.3729 24.7389 15.1356C24.7857 17.464 24.7389 19.8042 24.7389 22.3091C19.9487 21.6858 15.2757 21.0743 10.2865 20.4158C10.6262 18.3695 11.0478 16.4057 11.2469 14.43V14.4418ZM10.1694 24.5082C10.2046 24.3318 10.7433 24.1318 11.0244 24.1671C13.6127 24.4846 16.1893 24.8257 18.7659 25.1902C20.8388 25.4842 22.9118 25.8017 25.0317 26.1075C24.9262 28.0008 24.8326 29.7178 24.7154 31.6111C19.7262 31.1172 14.6082 30.5997 9.19734 30.0588C9.51356 28.2007 9.80635 26.3427 10.1694 24.4964V24.5082ZM4.70001 68.8309C4.79371 67.8195 4.91083 66.7964 5.03966 65.7851C6.18741 56.3655 7.68652 46.9223 8.19012 37.4322C8.22527 36.7031 8.2721 35.9504 8.55319 35.2801C9.54869 32.9399 13.6947 34.3864 15.6388 34.5981C18.5785 34.9156 21.5064 35.2331 24.4461 35.5506C24.5866 35.5624 24.7389 35.5859 24.8443 35.6917C24.9614 35.8093 24.9731 36.0092 24.9614 36.1856C24.6569 44.0647 23.9425 52.3789 25.3362 60.1874C26.5893 67.1727 31.2857 72.6646 37.3993 75.9926C42.4119 78.7209 47.975 79.6734 53.2102 81.6843C58.7381 83.8011 64.4652 85.2711 69.8995 87.6818C70.0283 87.7406 70.1688 87.8112 70.2274 87.9405C70.286 88.0699 70.2391 88.2228 70.1923 88.3639C68.8688 92.3034 67.8499 96.5252 66.2454 100.335C66.1634 100.535 66.0463 100.747 65.8472 100.794C65.7301 100.829 65.6012 100.794 65.4841 100.77C55.3652 98.2657 45.2228 95.8667 35.0804 93.4559C23.919 90.7982 7.48742 89.6104 4.85227 75.5692C4.44236 73.3584 4.4892 71.0887 4.70001 68.8426V68.8309Z" fill="#FFFAEF"/>
</g>
<path opacity="0.5" d="M122.428 39.6641L80.3417 68.2224" stroke="#FFFAEF" stroke-width="9.11045" stroke-linecap="round"/>
<path opacity="0.5" d="M92.5996 31.7891L50.5136 60.3474" stroke="#FFFAEF" stroke-width="9.11045" stroke-linecap="round"/>
<path opacity="0.5" d="M91.0996 4.71875L49.0136 33.2771" stroke="#FFFAEF" stroke-width="9.11045" stroke-linecap="round"/>
<defs>
<clipPath id="clip0_3133_6488">
<rect width="97.6996" height="105.215" fill="white" transform="matrix(-1 0 0 -1 98.6172 109.945)"/>
</clipPath>
</defs>
</svg>
