<svg width="171" height="106" viewBox="0 0 171 106" fill="none" xmlns="http://www.w3.org/2000/svg">
<path d="M57.8062 43.4241C57.4843 43.4114 57.0929 43.3014 56.8087 43.1698C57.066 42.9184 57.5028 42.5703 58.2745 42.1054C61.0605 40.4737 64.1884 39.7749 67.2413 40.0232C64.9599 41.963 60.8123 43.5124 57.8039 43.4182L57.808 43.42L57.8062 43.4241ZM84.5786 51.4637C84.1438 45.614 80.5709 40.4201 75.0487 37.5883C74.8626 37.4892 74.6912 37.4012 74.508 37.3178C76.1137 32.9946 75.2991 28.5401 71.9139 24.8402C61.73 13.704 35.4149 14.1045 16.0905 25.8777L21.4569 28.0976C38.8898 19.0103 61.0083 19.294 68.4426 27.8615C70.6163 30.3616 71.2275 33.0357 70.143 35.8314C65.3683 34.8204 60.3082 35.6118 55.9133 38.1887C51.9873 40.4891 51.6335 42.7686 52.0312 44.285C52.7064 46.8804 55.8499 47.9442 57.6737 47.9981C62.494 48.1507 68.7573 45.5262 71.6035 42.1596C71.8374 41.8837 72.0631 41.6043 72.2765 41.3195C72.4826 41.4176 72.7033 41.5267 72.9058 41.6329C77.0057 43.7436 79.9964 47.0187 81.1658 51.1334C85.2449 65.3334 69.966 65.9333 69.5001 66.1146L43.5756 66.4269C38.0823 66.0821 34.2331 60.9386 35.5117 55.6599L45.3134 29.9951C45.5095 29.2833 45.4219 28.3726 44.3722 28.3034L40.3894 28.4908C39.5447 28.4999 38.9221 29.048 38.6471 29.7501L24.5412 62.0924C21.6085 69.4401 27.8139 77.191 35.7399 76.0516L55.327 73.2379L55.3811 73.237C57.7119 73.0164 60.2109 72.7135 62.8775 72.3185C68.2831 71.5307 85.8101 67.679 84.575 51.4718L84.5786 51.4637Z" fill="url(#paint0_linear_3129_5834)"/>
<path d="M119.503 54.407C117.509 62.9195 109.415 68.9796 101.449 67.9119C97.9886 67.4455 95.0019 65.6482 93.0388 62.8476C90.801 59.6495 90.0855 55.3919 91.0703 51.169C93.0644 42.6565 101.158 36.5964 109.124 37.6641C110.283 37.8186 111.408 38.0938 112.421 38.5671C120.44 42.3107 120.268 51.1368 119.501 54.411L119.503 54.407ZM157.835 55.7074C159.283 51.244 159.567 46.0695 156.692 41.223C152.948 34.9188 145.039 32.8336 139.427 36.1764C138.896 36.4939 138.262 35.9806 138.488 35.4119L146.592 16.7223C146.798 16.1982 146.418 15.6299 145.853 15.6143L141.342 15.2907C140.769 15.2715 140.247 15.6024 140.02 16.1177L128.473 42.3941C127.834 43.6782 131.417 52.113 131.978 50.6844C136.652 38.7725 145.781 39.2396 148.935 40.6357C154.917 43.2885 156.481 49.4825 154.548 55.5033C150.644 67.6636 137.321 70.7812 131.404 60.3898C128.787 55.799 126.452 47.3496 121.377 39.828C118.842 36.0631 114.82 33.7204 110.245 33.109C100.55 31.8061 90.7392 38.9577 88.3778 49.059C87.1656 54.2311 88.0959 59.5215 90.9279 63.5678C92.6626 66.0437 94.9936 67.9312 97.711 69.0968C99.0718 69.6804 100.531 70.0845 102.062 70.2926C110.728 71.4579 118.15 66.7114 122.593 57.6669C123.119 56.5948 124.65 56.5572 125.254 57.5833L127.178 60.8396C129.759 65.357 133.411 68.8387 138.527 69.4849C147.725 70.6418 154.871 64.8459 157.832 55.7254L157.836 55.7173L157.835 55.7074Z" fill="url(#paint1_linear_3129_5834)"/>
<path d="M29.872 92.685H35.6062C36.7116 92.685 37.5694 92.9613 38.1797 93.514C38.8014 94.0667 39.1123 94.8727 39.1123 95.932C39.1123 96.4962 38.9742 97.0086 38.6978 97.4692C38.433 97.9183 38.076 98.2637 37.627 98.5055C38.882 98.92 39.5096 99.8469 39.5096 101.286C39.5096 102 39.3484 102.622 39.026 103.152C38.7036 103.67 38.266 104.067 37.7133 104.343C37.1721 104.62 36.5676 104.758 35.8998 104.758H29.872V92.685ZM35.2608 97.711C35.7559 97.711 36.1531 97.5786 36.4525 97.3138C36.7519 97.0374 36.9016 96.6229 36.9016 96.0702C36.9016 95.4369 36.7519 95.0051 36.4525 94.7748C36.1646 94.533 35.7329 94.4121 35.1571 94.4121H32.0482V97.711H35.2608ZM35.3989 103.031C36.0092 103.031 36.4755 102.904 36.7979 102.651C37.1318 102.397 37.2988 101.948 37.2988 101.303C37.2988 100.659 37.1261 100.192 36.7807 99.9045C36.4352 99.6166 35.9344 99.4727 35.278 99.4727H32.0482V103.031H35.3989ZM45.4283 105.017C44.4611 105.017 43.609 104.844 42.8721 104.499C42.1467 104.142 41.5825 103.635 41.1795 102.979C40.7765 102.311 40.575 101.522 40.575 100.613C40.575 99.726 40.7707 98.9546 41.1622 98.2982C41.5652 97.6304 42.1352 97.118 42.8721 96.7611C43.609 96.3926 44.4611 96.2084 45.4283 96.2084C46.3955 96.2084 47.2418 96.3926 47.9672 96.7611C48.7041 97.118 49.2741 97.6304 49.6771 98.2982C50.0801 98.9546 50.2816 99.726 50.2816 100.613C50.2816 101.522 50.0801 102.311 49.6771 102.979C49.2741 103.635 48.7041 104.142 47.9672 104.499C47.2418 104.844 46.3955 105.017 45.4283 105.017ZM45.4283 103.307C46.2228 103.307 46.8561 103.059 47.3281 102.564C47.8002 102.058 48.0363 101.407 48.0363 100.613C48.0363 99.7721 47.8002 99.1158 47.3281 98.6437C46.8676 98.1601 46.2343 97.9183 45.4283 97.9183C44.6223 97.9183 43.9832 98.1601 43.5111 98.6437C43.0506 99.1158 42.8203 99.7721 42.8203 100.613C42.8203 101.407 43.0563 102.058 43.5284 102.564C44.0005 103.059 44.6338 103.307 45.4283 103.307ZM51.682 96.4675H53.7892V97.7974C54.1231 97.3483 54.5952 97.0144 55.2054 96.7956C55.8272 96.5768 56.5353 96.4675 57.3298 96.4675V98.1255C56.4893 98.1255 55.7581 98.2579 55.1363 98.5228C54.5261 98.7761 54.1 99.1791 53.8582 99.7318V104.758H51.682V96.4675ZM58.3113 96.4675H60.4184V97.7974C60.7523 97.3483 61.2244 97.0144 61.8347 96.7956C62.4565 96.5768 63.1646 96.4675 63.9591 96.4675V98.1255C63.1185 98.1255 62.3874 98.2579 61.7656 98.5228C61.1553 98.7761 60.7293 99.1791 60.4875 99.7318V104.758H58.3113V96.4675ZM69.2798 105.017C68.3126 105.017 67.4605 104.844 66.7236 104.499C65.9982 104.142 65.434 103.635 65.031 102.979C64.628 102.311 64.4265 101.522 64.4265 100.613C64.4265 99.726 64.6222 98.9546 65.0137 98.2982C65.4167 97.6304 65.9867 97.118 66.7236 96.7611C67.4605 96.3926 68.3126 96.2084 69.2798 96.2084C70.247 96.2084 71.0933 96.3926 71.8187 96.7611C72.5556 97.118 73.1256 97.6304 73.5286 98.2982C73.9316 98.9546 74.1331 99.726 74.1331 100.613C74.1331 101.522 73.9316 102.311 73.5286 102.979C73.1256 103.635 72.5556 104.142 71.8187 104.499C71.0933 104.844 70.247 105.017 69.2798 105.017ZM69.2798 103.307C70.0743 103.307 70.7076 103.059 71.1796 102.564C71.6517 102.058 71.8878 101.407 71.8878 100.613C71.8878 99.7721 71.6517 99.1158 71.1796 98.6437C70.7191 98.1601 70.0858 97.9183 69.2798 97.9183C68.4738 97.9183 67.8347 98.1601 67.3626 98.6437C66.9021 99.1158 66.6718 99.7721 66.6718 100.613C66.6718 101.407 66.9078 102.058 67.3799 102.564C67.852 103.059 68.4853 103.307 69.2798 103.307ZM74.058 96.4675H76.2342L77.9268 102.081L79.5849 96.4675H81.4848L83.1429 102.081L84.8355 96.4675H87.0117L84.3001 104.758H82.2966L80.5349 99.1273L78.7732 104.758H76.7697L74.058 96.4675ZM98.3314 105.017C97.0418 105.017 95.994 104.729 95.1879 104.153C94.3819 103.578 93.9789 102.772 93.9789 101.735C93.9789 100.964 94.1862 100.313 94.6007 99.7836C95.0267 99.2424 95.7061 98.6955 96.6388 98.1428C96.0976 97.6362 95.6888 97.1641 95.4125 96.7265C95.1476 96.289 95.0152 95.8054 95.0152 95.2757C95.0152 94.723 95.1534 94.2337 95.4297 93.8076C95.7176 93.3701 96.1149 93.0304 96.6215 92.7886C97.1281 92.5468 97.7211 92.4259 98.4005 92.4259C99.0568 92.4259 99.6325 92.5526 100.128 92.8059C100.634 93.0477 101.026 93.3874 101.302 93.8249C101.578 94.2509 101.717 94.7345 101.717 95.2757C101.717 95.932 101.55 96.502 101.216 96.9856C100.893 97.4577 100.346 97.9413 99.5749 98.4364L102.528 101.217C102.839 100.687 102.995 99.7836 102.995 98.5055H104.774C104.774 99.4036 104.705 100.152 104.566 100.751C104.44 101.35 104.209 101.931 103.876 102.495L106.276 104.758H103.72L102.597 103.722C102.068 104.171 101.446 104.499 100.732 104.706C100.03 104.913 99.2295 105.017 98.3314 105.017ZM98.2623 97.4347C98.8495 97.0892 99.2756 96.7611 99.5404 96.4502C99.8052 96.1393 99.9376 95.7939 99.9376 95.4139C99.9376 94.9763 99.7995 94.6194 99.5231 94.343C99.2468 94.0667 98.8725 93.9285 98.4005 93.9285C97.9399 93.9285 97.5714 94.0667 97.2951 94.343C97.0187 94.6194 96.8806 94.9763 96.8806 95.4139C96.8806 95.7363 96.9842 96.0414 97.1914 96.3293C97.4102 96.6056 97.7672 96.9741 98.2623 97.4347ZM98.3486 103.566C98.9704 103.566 99.5404 103.474 100.059 103.29C100.577 103.105 101.008 102.852 101.354 102.53L98.0378 99.3173C97.3469 99.6397 96.8345 99.9966 96.5006 100.388C96.1782 100.78 96.017 101.229 96.017 101.735C96.017 102.334 96.2415 102.789 96.6906 103.1C97.1511 103.411 97.7038 103.566 98.3486 103.566ZM118.808 105.017C118.105 105.017 117.501 104.925 116.994 104.741C116.487 104.545 115.998 104.228 115.526 103.791V104.758H113.419V91.9941H115.595V97.2792C115.987 96.9223 116.459 96.6574 117.011 96.4847C117.575 96.3005 118.174 96.2084 118.808 96.2084C119.648 96.2084 120.397 96.3984 121.053 96.7783C121.721 97.1468 122.239 97.6649 122.607 98.3328C122.987 99.0006 123.177 99.7663 123.177 100.63C123.177 101.505 122.987 102.276 122.607 102.944C122.239 103.601 121.721 104.113 121.053 104.481C120.397 104.838 119.648 105.017 118.808 105.017ZM118.272 103.307C119.055 103.307 119.7 103.059 120.207 102.564C120.713 102.069 120.966 101.424 120.966 100.63C120.966 99.8354 120.713 99.1848 120.207 98.6782C119.7 98.1716 119.055 97.9183 118.272 97.9183C117.65 97.9183 117.092 98.091 116.597 98.4364C116.113 98.7703 115.779 99.2194 115.595 99.7836V101.459C115.791 102.023 116.13 102.472 116.614 102.806C117.098 103.14 117.65 103.307 118.272 103.307ZM127.186 105.017C126.196 105.017 125.384 104.758 124.751 104.24C124.118 103.71 123.801 103.002 123.801 102.115C123.801 101.194 124.101 100.474 124.699 99.9563C125.298 99.4382 126.139 99.1791 127.221 99.1791C128.269 99.1791 129.173 99.3921 129.933 99.8181V99.5936C129.933 99.0064 129.748 98.5803 129.38 98.3155C129.023 98.0507 128.442 97.9183 127.636 97.9183C127.129 97.9183 126.628 97.9701 126.133 98.0737C125.638 98.1658 125.2 98.2982 124.82 98.471V96.7611C125.166 96.5999 125.626 96.4675 126.202 96.3638C126.789 96.2602 127.353 96.2084 127.895 96.2084C129.334 96.2084 130.399 96.5193 131.09 97.141C131.781 97.7513 132.126 98.6034 132.126 99.6972V104.758H130.071V103.946C129.714 104.291 129.305 104.556 128.845 104.741C128.396 104.925 127.843 105.017 127.186 105.017ZM127.722 103.428C128.206 103.428 128.643 103.336 129.035 103.152C129.426 102.956 129.725 102.691 129.933 102.357V101.442C129.299 100.993 128.574 100.768 127.756 100.768C126.594 100.768 126.012 101.217 126.012 102.115C126.012 102.553 126.156 102.881 126.444 103.1C126.743 103.319 127.169 103.428 127.722 103.428ZM137.966 105.017C136.998 105.017 136.146 104.844 135.409 104.499C134.684 104.153 134.12 103.652 133.717 102.996C133.314 102.34 133.112 101.551 133.112 100.63C133.112 99.7088 133.314 98.92 133.717 98.2637C134.131 97.5959 134.701 97.0892 135.427 96.7438C136.164 96.3869 137.021 96.2084 138 96.2084C139.29 96.2084 140.32 96.4617 141.092 96.9683V98.7128C140.343 98.1831 139.388 97.9183 138.225 97.9183C137.338 97.9183 136.63 98.1428 136.1 98.5919C135.582 99.0294 135.323 99.7088 135.323 100.63C135.323 101.54 135.582 102.213 136.1 102.651C136.63 103.088 137.327 103.307 138.19 103.307C139.353 103.307 140.355 103.031 141.195 102.478V104.205C140.781 104.481 140.309 104.683 139.779 104.81C139.261 104.948 138.657 105.017 137.966 105.017ZM142.6 91.9941H144.776V100.112L148.075 96.4675H150.631L146.935 100.526L151.046 104.758H148.49L144.776 100.924V104.758H142.6V91.9941Z" fill="white"/>
<defs>
<linearGradient id="paint0_linear_3129_5834" x1="60.6094" y1="18.0625" x2="5.59324" y2="55.7791" gradientUnits="userSpaceOnUse">
<stop stop-color="#166AF6"/>
<stop offset="1" stop-color="#00C9F7"/>
</linearGradient>
<linearGradient id="paint1_linear_3129_5834" x1="140.267" y1="13.1546" x2="82.4805" y2="46.231" gradientUnits="userSpaceOnUse">
<stop stop-color="#166AF6"/>
<stop offset="1" stop-color="#00C9F7"/>
</linearGradient>
</defs>
</svg>
