<svg width="185" height="160" viewBox="0 0 185 160" fill="none" xmlns="http://www.w3.org/2000/svg">
<g opacity="0.15">
<g clip-path="url(#clip0_3133_6460)">
<path d="M183.478 48.1765C183.126 46.6932 182.651 45.2275 182.053 43.8148C178.888 36.3451 172.768 30.1822 165.346 26.933C160.07 24.6196 153.827 23.772 148.234 22.4123C135.607 19.3397 122.892 16.5672 110.317 13.318C103.828 11.6404 97.2855 10.1571 90.7609 8.60311C87.4898 7.82612 84.2362 7.04913 80.9651 6.2898C77.9578 5.58345 74.2294 4.01182 71.1517 4.01182C64.4864 2.45784 55.992 -1.10924 49.2035 0.338782C39.0032 2.51082 33.991 15.4017 41.0433 23.4542C44.3144 27.1978 49.0804 29.2816 53.8288 30.7649C62.5342 33.4844 71.1341 36.2391 79.7516 39.2235C91.605 43.3203 103.423 47.5761 115.347 51.5847C123.736 54.4101 132.705 57.677 137.735 65.0054C140.813 69.4907 142.009 75.0356 142.36 80.4568C142.536 82.9644 142.536 85.4719 142.536 87.9971C142.571 103.784 142.413 119.5 142.431 135.252C142.431 145.794 146.687 158.12 159.243 157.979C169.514 157.855 174.104 149.309 175.406 140.32C175.705 138.201 176.074 136.1 176.303 133.963C176.478 132.303 176.355 130.608 176.584 128.966C177.006 125.875 177.657 122.82 178.079 119.73C178.642 115.457 179.116 111.183 179.574 106.892C180.84 94.8664 181.965 82.8761 183.425 70.8504C184.305 63.575 185.272 55.5579 183.496 48.1765H183.478ZM59.9842 26.5268C59.6852 26.5091 59.3686 26.4032 59.0872 26.2972C55.4468 25.0258 51.8064 23.7544 48.1659 22.4653C47.7087 22.2004 47.269 21.9532 46.8117 21.6883C45.1058 19.5516 43.2416 17.6268 43.2944 14.4835C43.3999 8.63842 48.2714 4.66519 54.0399 5.93663C58.1903 6.85488 62.3584 7.70251 66.5264 8.56779C66.6144 8.83267 66.6847 9.09755 66.7726 9.34478C65.0667 14.5365 63.2553 19.6928 61.6901 24.9198C61.479 25.6085 61.0394 26.3326 60.3359 26.4738C60.2128 26.4915 60.1073 26.5091 59.9842 26.4915V26.5268ZM74.757 31.4889C71.9079 30.5354 69.2348 29.6348 66.5792 28.7342C66.5264 28.5929 66.4737 28.434 66.4209 28.2927C66.5088 28.1691 66.5264 28.0278 66.4737 27.8689C68.4258 22.1827 70.3779 16.4966 72.3476 10.8281C72.7697 10.7575 73.1918 10.6868 73.6139 10.6162C75.9353 11.1107 78.2743 11.6051 80.8947 12.1525C79.6109 16.4966 78.3798 20.6464 77.1488 24.7786C76.8498 25.6615 76.5684 26.5445 76.2694 27.4274C76.2343 27.5687 76.1815 27.6923 76.1463 27.8336C75.7067 29.0167 75.2494 30.1998 74.7746 31.4889H74.757ZM168.951 143.41C168.547 147.454 166.331 150.121 162.761 151.41C155.779 153.935 148.85 149.52 148.691 142.369C148.621 138.872 148.691 135.358 148.691 131.597C155.884 132.533 162.901 133.451 170.393 134.44C169.883 137.512 169.25 140.461 168.951 143.428V143.41ZM170.569 128.295C170.517 128.559 169.708 128.86 169.285 128.807C165.399 128.33 161.53 127.818 157.661 127.27C154.548 126.829 151.435 126.352 148.252 125.893C148.41 123.05 148.551 120.472 148.727 117.629C156.219 118.37 163.904 119.147 172.029 119.96C171.554 122.75 171.114 125.54 170.569 128.312V128.295ZM178.782 61.7385C178.642 63.2571 178.466 64.7935 178.272 66.3121C176.549 80.4568 174.298 94.6369 173.541 108.888C173.489 109.982 173.418 111.113 172.996 112.119C171.501 115.633 165.276 113.461 162.356 113.143C157.942 112.666 153.545 112.19 149.131 111.713C148.92 111.695 148.691 111.66 148.533 111.501C148.357 111.324 148.34 111.024 148.357 110.759C148.815 98.9279 149.887 86.4432 147.795 74.7177C145.913 64.2284 138.86 55.9817 129.68 50.9843C122.153 46.8874 113.799 45.4571 105.938 42.4374C97.6373 39.2588 89.0374 37.0515 80.8772 33.4314C80.6837 33.3431 80.4727 33.2372 80.3847 33.0429C80.2968 32.8487 80.3671 32.6191 80.4375 32.4072C82.4248 26.4915 83.9548 20.152 86.3642 14.4305C86.4873 14.1303 86.6632 13.8125 86.9622 13.7418C87.138 13.6888 87.3315 13.7418 87.5073 13.7771C102.702 17.5385 117.932 21.1409 133.162 24.7609C149.923 28.7518 174.597 30.5354 178.554 51.62C179.169 54.9398 179.099 58.348 178.782 61.7208V61.7385Z" fill="#FFFAEF"/>
</g>
<path opacity="0.5" d="M2 105.508L65.1974 62.6239" stroke="#FFFAEF" stroke-width="3.67384" stroke-linecap="round"/>
<path opacity="0.5" d="M46.7852 117.359L109.983 74.4754" stroke="#FFFAEF" stroke-width="3.67384" stroke-linecap="round"/>
<path opacity="0.5" d="M49.043 158L112.24 115.116" stroke="#FFFAEF" stroke-width="3.67384" stroke-linecap="round"/>
</g>
<defs>
<clipPath id="clip0_3133_6460">
<rect width="146.708" height="157.993" fill="white" transform="translate(37.7539)"/>
</clipPath>
</defs>
</svg>
