<svg width="570" height="585" viewBox="0 0 570 585" fill="none" xmlns="http://www.w3.org/2000/svg">
<path d="M305.884 262.436C302.716 262.311 298.864 261.228 296.067 259.934C298.6 257.46 302.898 254.034 310.493 249.459C337.91 233.401 368.692 226.524 398.736 228.967C376.285 248.057 335.467 263.305 305.861 262.378L305.902 262.396L305.884 262.436ZM569.355 341.554C565.077 283.987 529.915 232.874 475.569 205.005C473.738 204.03 472.051 203.164 470.248 202.343C486.05 159.798 478.035 115.961 444.72 79.5487C344.499 -30.0436 85.5277 -26.1027 -104.647 89.7594L-51.8343 111.606C119.725 22.1763 337.396 24.9681 410.558 109.282C431.95 133.886 437.965 160.202 427.292 187.715C380.303 177.766 330.506 185.554 287.256 210.913C248.619 233.552 245.138 255.985 249.051 270.908C255.696 296.45 286.632 306.919 304.58 307.449C352.018 308.951 413.655 283.123 441.665 249.992C443.967 247.277 446.188 244.527 448.288 241.725C450.316 242.69 452.489 243.764 454.482 244.809C494.829 265.58 524.261 297.811 535.77 338.304C575.912 478.048 425.55 483.953 420.965 485.736L165.839 488.81C111.778 485.417 73.8973 434.799 86.4809 382.85L182.94 130.279C184.871 123.274 184.008 114.312 173.678 113.631L134.482 115.475C126.17 115.565 120.042 120.959 117.336 127.869L-21.4817 446.153C-50.3432 518.463 10.7255 594.741 88.7265 583.528L281.485 555.838L282.018 555.829C304.956 553.658 329.549 550.677 355.791 546.79C408.988 539.037 581.475 501.132 569.319 341.634L569.355 341.554Z" fill="url(#paint0_linear_3129_5856)"/>
<defs>
<linearGradient id="paint0_linear_3129_5856" x1="333.471" y1="12.8491" x2="-207.951" y2="384.023" gradientUnits="userSpaceOnUse">
<stop stop-color="#166AF6"/>
<stop offset="1" stop-color="#00C9F7"/>
</linearGradient>
</defs>
</svg>
